<?xml version="1.0" encoding="utf-8"?>
<!-- Generator: Adobe Illustrator 18.0.0, SVG Export Plug-In . SVG Version: 6.00 Build 0)  -->
<!DOCTYPE svg PUBLIC "-//W3C//DTD SVG 1.1//EN" "http://www.w3.org/Graphics/SVG/1.1/DTD/svg11.dtd">
<svg version="1.1" id="Capa_1" xmlns="http://www.w3.org/2000/svg" xmlns:xlink="http://www.w3.org/1999/xlink" x="0px" y="0px"
	 viewBox="230.4 -27.5 1033.6 491.5" enable-background="new 230.4 -27.5 1033.6 491.5" xml:space="preserve">
<g>
	<path fill="#222222" d="M569.3,125.7c0-2.8,0-10.3-41.6-17.1c-11-1.8-23.4-3.3-36.9-4.5v16.8c7.8,0.7,15.3,1.5,22.2,2.4
		c5.9,0.8,11.3,1.6,16.2,2.5c-4.9,0.9-10.3,1.7-16.2,2.5c-25.5,3.3-58.1,5.2-91.5,5.2s-66-1.8-91.5-5.2c-5.9-0.8-11.3-1.6-16.2-2.5
		c4.9-0.9,10.3-1.7,16.2-2.5c4.6-0.6,9.4-1.1,14.3-1.6c-0.9-3.4-1.4-7.3-1.4-11.4c0-1.8,0.1-3.6,0.3-5.3c-10.1,1-19.4,2.2-27.9,3.6
		c-41.5,6.9-41.5,14.3-41.6,17.2v92.7c0,1.9,1.6,3.5,3.5,3.5h5l99.5,138.5v86c0,1.9,1.6,3.5,3.5,3.5h72.5c1.9,0,3.5-1.6,3.5-3.5v-86
		l87.9-121.1c0.8-1.1,0.9-2.6,0.2-3.8c-0.7-1.2-2-1.9-3.3-1.8c-8.2,0.7-17,1-26.2,1c-31.6,0-62.5-4.1-81-7
		c10.4,0.1,24.5,0.3,39.3,0.3c36.9,0,82.4-0.9,89.4-5.1c1-0.6,1.7-1.8,1.7-3L569.3,125.7z"/>
	<path d="M423.7,33.2c-0.1,0.1-0.1,0.2-0.2,0.2l0.2-0.1V33.2z"/>
	<path d="M491.9,33.2c-0.1,0.1-0.1,0.2-0.2,0.2l0.2-0.1V33.2z"/>
	<text transform="matrix(1 0 0 1 350.3836 124.9794)"><tspan x="0" y="0" fill="#222222" font-family="'Roboto-Bold'" font-size="53.565">T</tspan><tspan x="30.6" y="0" fill="#CC0000" font-family="'Roboto-Bold'" font-size="53.565">A</tspan><tspan x="64.9" y="0" fill="#222222" font-family="'Roboto-Bold'" font-size="53.565">GG</tspan></text>
	<text transform="matrix(1 0 0 1 309.5545 78.6841)"><tspan x="0" y="0" fill="#222222" font-family="'Roboto-Bold'" font-size="53.565">TATTA</tspan><tspan x="160.3" y="0" fill="#CC0000" font-family="'Roboto-Bold'" font-size="53.565">G</tspan><tspan x="196.1" y="0" fill="#222222" font-family="'Roboto-Bold'" font-size="53.565">C</tspan></text>
	<text transform="matrix(1 0 0 1 281.1317 33.8329)"><tspan x="0" y="0" fill="#222222" font-family="'Roboto-Bold'" font-size="53.565">A</tspan><tspan x="34.3" y="0" fill="#CC0000" font-family="'Roboto-Bold'" font-size="53.565">T</tspan><tspan x="64.9" y="0" fill="#222222" font-family="'Roboto-Bold'" font-size="53.565">CGTATA</tspan><tspan x="264.6" y="0" fill="#CC0000" font-family="'Roboto-Bold'" font-size="53.565">C</tspan></text>
</g>
<text transform="matrix(1 0 0 1 603.3154 357.5242)"><tspan x="0" y="0" fill="#222222" font-family="'Roboto-Bold'" font-size="344.3467">sift</tspan><tspan x="512.8" y="0" fill="#CC0000" font-family="'Roboto-Bold'" font-size="344.3467">r</tspan></text>
</svg>
